<mxfile host="app.diagrams.net" modified="2024-07-08T03:15:24.329Z" agent="Mozilla/5.0 (Macintosh; Intel Mac OS X 10_15_7) AppleWebKit/605.1.15 (KHTML, like Gecko) Version/17.4.1 Safari/605.1.15" version="24.6.4" etag="nkfFp7eK2YE16wz6pMJF" type="github">
  <diagram name="ページ1" id="SXohS4PAAI0AC0VXGJhs">
    <mxGraphModel>
      <root>
        <mxCell id="0" />
        <mxCell id="1" parent="0" />
      </root>
    </mxGraphModel>
  </diagram>
</mxfile>
